<svg aria-hidden="true" style="width:0;height:0;position:absolute;overflow:hidden" xmlns="http://www.w3.org/2000/svg"><defs><symbol id="search" viewBox="0 0 30 32"><path d="M12.8 26.4a12.722 12.722 0 0 0 7.835-2.701l7.034 7.034 2.262-2.262-7.034-7.034a12.72 12.72 0 0 0 2.702-7.837c0-7.058-5.742-12.8-12.8-12.8s-12.8 5.742-12.8 12.8c0 7.058 5.742 12.8 12.8 12.8zm0-22.4c5.294 0 9.6 4.306 9.6 9.6s-4.306 9.6-9.6 9.6-9.6-4.306-9.6-9.6S7.506 4 12.8 4z"/></symbol><symbol id="heart" viewBox="0 0 35 32"><path fill="#fd5103" style="fill:var(--color1,#fd5103)" d="m17.684 32-2.564-2.302C6.013 21.554 0 16.183 0 9.591 0 4.22 4.28 0 9.726 0c3.077 0 6.03 1.413 7.958 3.645C19.612 1.413 22.565 0 25.642 0c5.447 0 9.726 4.22 9.726 9.591 0 6.592-6.013 11.963-15.12 20.124l-2.564 2.284z"/></symbol><symbol id="small-heart" viewBox="0 0 35 32"><path d="m17.684 28.632-2.076-1.817c-7.373-6.429-12.24-10.67-12.24-15.874 0-4.24 3.464-7.572 7.874-7.572 2.491 0 4.882 1.115 6.442 2.877 1.56-1.762 3.951-2.877 6.442-2.877 4.409 0 7.874 3.332 7.874 7.572 0 5.204-4.867 9.444-12.24 15.888l-2.076 1.803z"/></symbol></defs><symbol id="arrow-right" viewBox="0 0 18 32"><path d="M11.821 16.001.507 4.687l3.232-3.232 14.546 14.546L3.739 30.547.507 27.315l11.314-11.314z"/></symbol><symbol id="arrow-down" viewBox="0 0 52 32"><path d="m3.371 6.373 22.628 22.628L48.627 6.373l-2.828-2.828-19.8 19.8-19.8-19.8-2.828 2.828z"/></symbol><symbol id="burger" viewBox="0 0 56 32"><path d="M1.882.941h52.706a1.882 1.882 0 1 1 0 3.764H1.882a1.882 1.882 0 1 1 0-3.764zM1.882 14.118h52.706a1.882 1.882 0 1 1 0 3.764H1.882a1.882 1.882 0 1 1 0-3.764zM1.882 27.294h52.706a1.882 1.882 0 1 1 0 3.764H1.882a1.882 1.882 0 1 1 0-3.764z"/></symbol><symbol id="switcher" viewBox="0 0 61 32"><path fill="#fff" style="fill:var(--color1,#fff)" d="M15.238 1.223h30.476c8.161 0 14.777 6.616 14.777 14.777s-6.616 14.777-14.777 14.777H15.238C7.077 30.777.461 24.161.461 16S7.077 1.223 15.238 1.223z"/><path fill="#fd5103" style="fill:var(--color2,#fd5103)" d="M25.905 16c0 6.733-5.458 12.19-12.19 12.19S1.525 22.732 1.525 16c0-6.733 5.458-12.19 12.19-12.19S25.905 9.268 25.905 16z"/><path fill="none" stroke="#fd5103" style="stroke:var(--color2,#fd5103)" stroke-width=".921" d="M15.238 1.223h30.476c8.161 0 14.777 6.616 14.777 14.777s-6.616 14.777-14.777 14.777H15.238C7.077 30.777.461 24.161.461 16S7.077 1.223 15.238 1.223z"/></symbol><symbol id="close" viewBox="0 0 32 32"><path d="m18.228 16 13.1-13.1A1.58 1.58 0 0 0 29.1.672L16 13.772 2.9.656A1.586 1.586 0 1 0 .656 2.9L13.772 16 .656 29.1a1.593 1.593 0 0 0-.552 1.139 1.572 1.572 0 0 0 1.003 1.532 1.578 1.578 0 0 0 1.776-.444l13.116-13.1 13.1 13.1a1.58 1.58 0 0 0 2.228-2.229l-13.1-13.1z"/></symbol><symbol id="icon-Heart" viewBox="0 0 36 32"><path fill="#fd5103" style="fill:var(--color1,#fd5103)" d="m17.882 32-2.593-2.302C6.08 21.554 0 16.183 0 9.591 0 4.22 4.328 0 9.835 0c3.112 0 6.098 1.413 8.047 3.645C19.831 1.413 22.818 0 25.929 0c5.508 0 9.835 4.22 9.835 9.591 0 6.592-6.08 11.963-15.289 20.124l-2.593 2.284z"/><path d="m17.882 28.632-2.099-1.817C8.328 20.386 3.406 16.145 3.406 10.941c0-4.24 3.503-7.572 7.962-7.572 2.519 0 4.936 1.115 6.514 2.877 1.578-1.762 3.995-2.877 6.514-2.877 4.459 0 7.962 3.332 7.962 7.572 0 5.204-4.922 9.444-12.377 15.888l-2.099 1.803z"/></symbol><symbol id="arrow-left" viewBox="0 0 20 32"><path d="m7.16 16 12.532 12.445L16.112 32 0 16 16.112 0l3.58 3.555L7.16 16z"/></symbol></svg>