<svg aria-hidden="true" style="position: absolute; width: 0; height: 0; overflow: hidden;" version="1.1" xmlns="http://www.w3.org/2000/svg" xmlns:xlink="http://www.w3.org/1999/xlink">
<defs>
<symbol id="search" viewBox="0 0 30 32">
<path d="M12.8 26.4c2.84-0.001 5.598-0.951 7.835-2.701l7.034 7.034 2.262-2.262-7.034-7.034c1.75-2.237 2.702-4.996 2.702-7.837 0-7.058-5.742-12.8-12.8-12.8s-12.8 5.742-12.8 12.8c0 7.058 5.742 12.8 12.8 12.8zM12.8 4c5.294 0 9.6 4.306 9.6 9.6s-4.306 9.6-9.6 9.6c-5.294 0-9.6-4.306-9.6-9.6s4.306-9.6 9.6-9.6z"></path>
</symbol>
<symbol id="heart" viewBox="0 0 35 32">
<path fill="#fd5103" style="fill: var(--color1, #fd5103)" d="M17.684 32l-2.564-2.302c-9.107-8.144-15.12-13.515-15.12-20.107 0-5.371 4.28-9.591 9.726-9.591 3.077 0 6.030 1.413 7.958 3.645 1.928-2.232 4.881-3.645 7.958-3.645 5.447 0 9.726 4.22 9.726 9.591 0 6.592-6.013 11.963-15.12 20.124l-2.564 2.284z"></path>
</symbol>
<symbol id="small-heart" viewBox="0 0 35 32">
<path d="M17.684 28.632l-2.076-1.817c-7.373-6.429-12.24-10.67-12.24-15.874 0-4.24 3.464-7.572 7.874-7.572 2.491 0 4.882 1.115 6.442 2.877 1.56-1.762 3.951-2.877 6.442-2.877 4.409 0 7.874 3.332 7.874 7.572 0 5.204-4.867 9.444-12.24 15.888l-2.076 1.803z"></path>
</symbol>
</defs>
<symbol id="arrow-right" viewBox="0 0 18 32">
<path d="M11.821 16.001l-11.314-11.314 3.232-3.232 14.546 14.546-14.546 14.546-3.232-3.232 11.314-11.314z"></path>
</symbol>
<symbol id="arrow-down" viewBox="0 0 52 32">
<path d="M3.371 6.373l22.628 22.628 22.628-22.628-2.828-2.828-19.8 19.8-19.8-19.8-2.828 2.828z"></path>
</symbol>
<symbol id="burger" viewBox="0 0 56 32">
<path d="M1.882 0.941h52.706c1.040 0 1.882 0.843 1.882 1.882s-0.843 1.882-1.882 1.882h-52.706c-1.040 0-1.882-0.843-1.882-1.882s0.843-1.882 1.882-1.882z"></path>
<path d="M1.882 14.118h52.706c1.040 0 1.882 0.843 1.882 1.882s-0.843 1.882-1.882 1.882h-52.706c-1.040 0-1.882-0.843-1.882-1.882s0.843-1.882 1.882-1.882z"></path>
<path d="M1.882 27.294h52.706c1.040 0 1.882 0.843 1.882 1.882s-0.843 1.882-1.882 1.882h-52.706c-1.040 0-1.882-0.843-1.882-1.882s0.843-1.882 1.882-1.882z"></path>
</symbol>
<symbol id="switcher" viewBox="0 0 61 32">
<path fill="#fff" style="fill: var(--color1, #fff)" d="M15.238 1.223h30.476c8.161 0 14.777 6.616 14.777 14.777s-6.616 14.777-14.777 14.777h-30.476c-8.161 0-14.777-6.616-14.777-14.777s6.616-14.777 14.777-14.777z"></path>
<path fill="#fd5103" style="fill: var(--color2, #fd5103)" d="M25.905 16c0 6.733-5.458 12.19-12.19 12.19s-12.19-5.458-12.19-12.19c0-6.733 5.458-12.19 12.19-12.19s12.19 5.458 12.19 12.19z"></path>
<path fill="none" stroke="#fd5103" style="stroke: var(--color2, #fd5103)" stroke-linejoin="miter" stroke-linecap="butt" stroke-miterlimit="4" stroke-width="0.9214" d="M15.238 1.223h30.476c8.161 0 14.777 6.616 14.777 14.777s-6.616 14.777-14.777 14.777h-30.476c-8.161 0-14.777-6.616-14.777-14.777s6.616-14.777 14.777-14.777z"></path>
</symbol>
<symbol id="close" viewBox="0 0 32 32">
<path d="M18.228 16l13.1-13.1c0.259-0.302 0.394-0.691 0.379-1.089s-0.18-0.775-0.462-1.056-0.659-0.446-1.056-0.462c-0.398-0.015-0.787 0.12-1.089 0.379l-13.1 13.1-13.1-13.116c-0.298-0.298-0.701-0.465-1.122-0.465s-0.824 0.167-1.122 0.465c-0.298 0.298-0.465 0.701-0.465 1.122s0.167 0.824 0.465 1.122l13.116 13.1-13.116 13.1c-0.165 0.142-0.3 0.316-0.395 0.512s-0.148 0.41-0.157 0.627 0.028 0.435 0.108 0.637c0.079 0.203 0.2 0.387 0.354 0.541s0.338 0.274 0.541 0.354 0.42 0.116 0.637 0.108c0.218-0.008 0.431-0.062 0.627-0.157s0.37-0.229 0.512-0.395l13.116-13.1 13.1 13.1c0.302 0.259 0.691 0.394 1.089 0.379s0.775-0.18 1.056-0.462 0.446-0.659 0.462-1.057c0.015-0.398-0.12-0.787-0.379-1.089l-13.1-13.1z"></path>
</symbol>
<symbol id="icon-Heart" viewBox="0 0 36 32">
<path fill="#fd5103" style="fill: var(--color1, #fd5103)" d="M17.882 32l-2.593-2.302c-9.209-8.144-15.289-13.515-15.289-20.107 0-5.371 4.328-9.591 9.835-9.591 3.112 0 6.098 1.413 8.047 3.645 1.949-2.232 4.936-3.645 8.047-3.645 5.508 0 9.835 4.22 9.835 9.591 0 6.592-6.080 11.963-15.289 20.124l-2.593 2.284z"></path>
<path  d="M17.882 28.632l-2.099-1.817c-7.455-6.429-12.377-10.67-12.377-15.874 0-4.24 3.503-7.572 7.962-7.572 2.519 0 4.936 1.115 6.514 2.877 1.578-1.762 3.995-2.877 6.514-2.877 4.459 0 7.962 3.332 7.962 7.572 0 5.204-4.922 9.444-12.377 15.888l-2.099 1.803z"></path>
</symbol>
<symbol id="arrow-left" viewBox="0 0 20 32">
<path  d="M7.16 16l12.532 12.445-3.58 3.555-16.112-16 16.112-16 3.58 3.555-12.532 12.445z"></path>
</symbol>
</svg>
